# xmcd CD database file
#
# Track frame offsets:
#	183
#	14998
#	27645
#	40170
#	56583
#	65433
#	82708
#	86928
#	95133
#	110675
#	125990
#	141580
#	149693
#	162208
#	174508
#	189430
#	198590
#	214143
#
# Disc length: 2945 seconds
#
# Revision: 0
# Processed by: cddbd v1.5.1PL0 Copyright (c) Steve Scherf et al.
# Submitted via: CDex 1.51
#
DISCID=1f0b7f12
DTITLE=Spike Jones - Spike Jones
DYEAR=1900
DGENRE=Jazz
TTITLE0=Rhapsody from hunger
TTITLE1=Morpheus
TTITLE2=Cocktails for two
TTITLE3=Chloe
TTITLE4=Five foot two eyes of blue
TTITLE5=Too young
TTITLE6=Brahm's alibi
TTITLE7=The sneezin' bee
TTITLE8=The ringmaster
TTITLE9=Pal yat chee
TTITLE10=Love in bloom
TTITLE11=My gal sal
TTITLE12=The Charleston
TTITLE13=Yakka hula hickey dula
TTITLE14=Yes we havwe no bananas
TTITLE15=Charlie my boy
TTITLE16=Ugga ugga boo ugga boo boo ugga
TTITLE17=April shovers
EXTD=
EXTT0=
EXTT1=
EXTT2=
EXTT3=
EXTT4=
EXTT5=
EXTT6=
EXTT7=
EXTT8=
EXTT9=
EXTT10=
EXTT11=
EXTT12=
EXTT13=
EXTT14=
EXTT15=
EXTT16=
EXTT17=
PLAYORDER=
